<?xml version="1.0" standalone="no"?>
<!DOCTYPE svg PUBLIC "-//W3C//DTD SVG 20010904//EN"
 "http://www.w3.org/TR/2001/REC-SVG-20010904/DTD/svg10.dtd">
<svg version="1.0" xmlns="http://www.w3.org/2000/svg"
 width="326.000000pt" height="326.000000pt" viewBox="0 0 326.000000 326.000000"
 preserveAspectRatio="xMidYMid meet">
<metadata>
Created by potrace 1.14, written by Peter Selinger 2001-2017
</metadata>
<g transform="translate(0.000000,326.000000) scale(0.100000,-0.100000)"
fill="#000000" stroke="none">
<path d="M1565 3126 c-183 -47 -279 -116 -340 -247 -34 -73 -39 -91 -39 -159
0 -61 4 -84 22 -114 12 -20 22 -39 22 -41 0 -2 -17 -9 -37 -16 -79 -26 -171
-99 -250 -197 -47 -59 -123 -203 -146 -277 -28 -86 -55 -246 -62 -358 -3 -60
-8 -116 -10 -125 -1 -9 -6 -55 -11 -102 -4 -47 -8 -87 -9 -90 -1 -3 -5 -34 -9
-70 -21 -181 -60 -413 -85 -513 -58 -230 -211 -593 -313 -744 l-49 -73 1371 0
1371 0 -3 72 -3 73 -70 35 c-38 19 -121 59 -183 89 -62 30 -117 60 -123 67 -7
9 -2 45 20 126 16 62 33 133 36 158 3 25 9 61 12 80 3 19 6 170 7 335 2 207 6
309 14 328 7 16 12 67 13 115 1 99 -19 159 -57 168 -16 4 -30 28 -57 97 -20
51 -41 111 -47 134 -17 68 -57 185 -79 233 -13 27 -21 67 -21 100 0 73 -24
181 -51 236 -26 52 -44 55 -106 20 l-42 -24 -70 53 c-236 182 -544 225 -774
108 -57 -28 -93 -22 -134 24 -50 57 -46 71 39 164 75 82 241 177 393 223 143
43 271 56 453 43 39 -2 72 -3 72 -2 0 13 -128 63 -179 71 -18 3 -43 8 -55 11
-11 3 -93 7 -181 8 -141 3 -171 1 -250 -19z m909 -1698 c-3 -4 -1 -8 3 -8 44
0 194 -576 178 -685 -2 -16 -6 -49 -9 -72 -3 -23 -10 -50 -15 -60 -6 -10 -24
-52 -41 -93 -17 -41 -33 -76 -35 -79 -8 -8 -71 155 -95 246 -19 75 -25 163
-24 373 0 214 22 465 36 414 4 -15 5 -31 2 -36z"/>
</g>
</svg>
